<?xml version="1.0" encoding="UTF-8" standalone="no"?>
<!-- Created with Inkscape (http://www.inkscape.org/) -->

<svg
   xmlns:dc="http://purl.org/dc/elements/1.1/"
   xmlns:cc="http://creativecommons.org/ns#"
   xmlns:rdf="http://www.w3.org/1999/02/22-rdf-syntax-ns#"
   xmlns:svg="http://www.w3.org/2000/svg"
   xmlns="http://www.w3.org/2000/svg"
   xmlns:sodipodi="http://sodipodi.sourceforge.net/DTD/sodipodi-0.dtd"
   xmlns:inkscape="http://www.inkscape.org/namespaces/inkscape"
   width="210mm"
   height="297mm"
   viewBox="0 0 210 297"
   version="1.1"
   id="svg8"
   inkscape:version="0.92.4 (5da689c313, 2019-01-14)"
   sodipodi:docname="dog.svg"
   inkscape:export-filename="C:\Users\Paola\Desktop\dog2.png"
   inkscape:export-xdpi="96"
   inkscape:export-ydpi="96">
  <defs
     id="defs2" />
  <sodipodi:namedview
     id="base"
     pagecolor="#ffffff"
     bordercolor="#666666"
     borderopacity="1.0"
     inkscape:pageopacity="0.0"
     inkscape:pageshadow="2"
     inkscape:zoom="1.3292187"
     inkscape:cx="388.6282"
     inkscape:cy="847.28938"
     inkscape:document-units="mm"
     inkscape:current-layer="layer3"
     showgrid="false"
     inkscape:object-nodes="false"
     inkscape:snap-smooth-nodes="true"
     inkscape:window-width="1920"
     inkscape:window-height="1001"
     inkscape:window-x="-9"
     inkscape:window-y="-9"
     inkscape:window-maximized="1" />
  <metadata
     id="metadata5">
    <rdf:RDF>
      <cc:Work
         rdf:about="">
        <dc:format>image/svg+xml</dc:format>
        <dc:type
           rdf:resource="http://purl.org/dc/dcmitype/StillImage" />
        <dc:title />
      </cc:Work>
    </rdf:RDF>
  </metadata>
  <g
     inkscape:label="Layer 1"
     inkscape:groupmode="layer"
     id="layer1"
     style="display:none;opacity:1">
    <path
       style="fill:#d38d5f;stroke:#000000;stroke-width:0.47099999;stroke-linecap:butt;stroke-linejoin:miter;stroke-miterlimit:4;stroke-dasharray:none;stroke-opacity:1"
       d="m 74.969101,58.461945 c 0,0 1.002053,-3.949505 1.487595,-6.518394 0,0 0.193209,-1.4913 0.784196,-4.157782 0,0 2.102304,-8.155663 2.687173,-10.131371 1.704834,-4.005276 3.378019,-7.594961 7.636249,-9.130032 2.170222,-0.520092 4.227651,-1.461541 6.500915,-0.999316 2.347669,0.497464 4.59459,1.519295 6.072281,3.452485 1.43377,1.294928 2.91548,2.827398 2.76105,4.931894 0.41373,2.208033 -0.9237,4.091228 -2.31487,5.661662 -1.522635,1.563875 -4.183966,2.679332 -6.237548,1.389222 -2.137578,-1.313917 -2.703572,-3.804316 -4.086633,-5.71159 -1.514302,-1.996899 0,0 -1.892045,4.52709 0,0 -0.548355,2.214332 -1.210597,4.361484 -1.801434,6.519037 -1.157759,4.721665 -1.657923,6.337296 -0.653143,2.367469 -1.339417,5.501457 -1.582084,7.910987 -0.735593,3.345106 -1.010543,4.546462 -0.127835,5.693547"
       id="path4847"
       inkscape:connector-curvature="0"
       sodipodi:nodetypes="cccccccccccccccc" />
    <path
       style="fill:#d38d5f;stroke:#000000;stroke-width:0.47099999;stroke-linecap:butt;stroke-linejoin:miter;stroke-miterlimit:4;stroke-dasharray:none;stroke-opacity:1"
       d="m 59.2002,60.332833 c 1.589779,-3.166288 9.476672,-2.935506 9.476672,-2.935506 6.495546,-0.224443 10.290081,4.166122 12.161675,5.531556 l 3.658437,3.958785 c 5.238076,7.508946 1.973079,15.969829 1.973079,15.969829 -0.290506,2.130966 -0.871297,2.911841 -3.206269,6.461348 -0.03973,0.158912 -1.349554,1.255534 -4.674473,5.075459 -2.241182,1.847453 -3.245507,3.196079 -3.35295,1.752644"
       id="path4840"
       inkscape:connector-curvature="0"
       sodipodi:nodetypes="cccccccc" />
    <path
       style="fill:#d38d5f;stroke:#000000;stroke-width:0.47099999;stroke-linecap:butt;stroke-linejoin:miter;stroke-miterlimit:4;stroke-dasharray:none;stroke-opacity:1"
       d="m 35.951015,59.913545 c -1.509366,4.58024 -2.658303,7.974026 -4.325723,11.49532 -2.073585,5.274562 -3.665903,10.315831 -5.924769,16.471819 -0.716643,4.136562 -3.229211,10.001891 -0.971048,13.420466 3.936075,1.82251 6.086079,-3.203549 6.177763,-3.408587 -2.138696,3.718777 3.00404,7.171887 5.05987,4.053957 0.667237,-0.93823 0.859967,-5.275051 1.19566,-1.81745 0.65954,3.67409 5.982989,4.55807 7.18491,0.87432 1.976923,-3.85846 2.183056,-8.807794 3.764874,-12.926574 0.204813,-2.484103 2.323573,-2.459 2.428175,0.144138 1.344796,4.702017 2.474348,9.895444 5.210627,13.458306 2.196324,2.87689 6.340079,1.63495 5.498414,-2.883926 0.742992,-1.691377 -0.658407,4.968616 5.113518,3.899006 4.814062,-2.797294 0.351967,-6.919435 2.554998,-4.267276 1.953914,3.135716 7.079537,0.83611 6.270054,-2.026313 C 74.716453,91.769046 71.640904,86.422502 69.810831,82.533468 67.542839,77.6675 65.481058,74.34703 63.347848,69.379571 61.974793,66.700243 60.277466,62.32596 58.667875,59.913544"
       id="path4827"
       inkscape:connector-curvature="0"
       sodipodi:nodetypes="cccccccccccccccccc" />
    <ellipse
       style="fill:#d35f5f;stroke:#000000;stroke-width:0.78739142;stroke-miterlimit:4;stroke-dasharray:none;stroke-opacity:1"
       id="path4776"
       cx="47.553078"
       cy="57.85857"
       rx="4.1996002"
       ry="6.1619649" />
    <ellipse
       style="fill:#d38d5f;stroke:#000000;stroke-width:0.67796534;stroke-miterlimit:4;stroke-dasharray:none;stroke-opacity:1"
       id="path101-0"
       cx="60.469242"
       cy="19.826548"
       rx="6.8292418"
       ry="6.588975" />
    <ellipse
       style="fill:#d38d5f;stroke:#000000;stroke-width:0.67796534;stroke-miterlimit:4;stroke-dasharray:none;stroke-opacity:1"
       id="path101"
       cx="34.043049"
       cy="20.434032"
       rx="6.8292418"
       ry="6.588975" />
    <ellipse
       style="fill:#000000;stroke:#000000;stroke-width:0.37190306;stroke-opacity:1"
       id="path61-9"
       cx="35.980751"
       cy="22.0963"
       rx="5.3365765"
       ry="4.9451032" />
    <ellipse
       style="fill:#000000;stroke:#000000;stroke-width:0.37190306;stroke-opacity:1"
       id="path61-9-5"
       cx="58.881741"
       cy="21.470419"
       rx="5.3365769"
       ry="4.9451032" />
    <ellipse
       style="fill:#d38d5f;stroke:#000000;stroke-width:0.6777761;stroke-opacity:1"
       id="path42"
       cx="47.553078"
       cy="35.621376"
       rx="14.598741"
       ry="16.07523" />
    <ellipse
       style="fill:#ffffff;stroke:#000000;stroke-width:0.38084573;stroke-opacity:1"
       id="path61"
       cx="41.961025"
       cy="37.544392"
       rx="4.2559042"
       ry="6.5025663" />
    <ellipse
       style="fill:#ffffff;stroke:#000000;stroke-width:0.38084573;stroke-opacity:1"
       id="path61-4"
       cx="53.343086"
       cy="37.397141"
       rx="4.2559042"
       ry="6.5025663" />
    <ellipse
       style="fill:#000000;stroke-width:0.38084573"
       id="path82"
       cx="42.554871"
       cy="40.294415"
       rx="2.9692354"
       ry="3.3645825" />
    <ellipse
       style="fill:#000000;stroke-width:0.38084573"
       id="path82-7"
       cx="52.848213"
       cy="40.200966"
       rx="2.9692354"
       ry="3.3645825" />
    <ellipse
       id="path21-1-0"
       cx="39.882542"
       cy="51.649895"
       rx="8.3138599"
       ry="8.8320303"
       style="fill:#000000;stroke:#000000;stroke-width:0.67796534;stroke-miterlimit:4;stroke-dasharray:none;stroke-opacity:1" />
    <ellipse
       style="fill:#ffffff;stroke:#000000;stroke-width:0.38084573;stroke-opacity:1"
       id="path128"
       cx="35.280231"
       cy="49.500275"
       rx="0.64333439"
       ry="0.60749412" />
    <ellipse
       style="fill:#ffffff;stroke:#000000;stroke-width:0.38084573;stroke-opacity:1"
       id="path128-9"
       cx="38.224716"
       cy="53.916294"
       rx="0.64333439"
       ry="0.60749412" />
    <ellipse
       style="fill:#ff9955;stroke-width:0.38084573"
       id="path128-0"
       cx="53.738983"
       cy="50.107792"
       rx="0.64333439"
       ry="0.60749412" />
    <ellipse
       id="path21-1-0-6"
       cx="55.866943"
       cy="51.696606"
       rx="8.3138599"
       ry="8.8320303"
       style="fill:#000000;stroke:#000000;stroke-width:0.67796534;stroke-miterlimit:4;stroke-dasharray:none;stroke-opacity:1" />
    <ellipse
       style="fill:#ffffff;stroke:#000000;stroke-width:0.38084573;stroke-opacity:1"
       id="path128-4"
       cx="39.21447"
       cy="49.523651"
       rx="0.64333439"
       ry="0.60749412" />
    <ellipse
       style="fill:#ffffff;stroke:#000000;stroke-width:0.38084573;stroke-opacity:1"
       id="path128-9-7"
       cx="41.886787"
       cy="53.916294"
       rx="0.64333439"
       ry="0.60749412" />
    <ellipse
       style="fill:#ffffff;stroke:#000000;stroke-width:0.38084573;stroke-opacity:1"
       id="path128-0-9"
       cx="43.22295"
       cy="49.570393"
       rx="0.64333439"
       ry="0.60749412" />
    <ellipse
       style="fill:#ffffff;stroke:#000000;stroke-width:0.38084573;stroke-opacity:1"
       id="path128-49"
       cx="52.955147"
       cy="49.367619"
       rx="0.64333439"
       ry="0.60749412" />
    <ellipse
       style="fill:#ffffff;stroke:#000000;stroke-width:0.38084573;stroke-opacity:1"
       id="path128-47"
       cx="56.51823"
       cy="49.54702"
       rx="0.64333439"
       ry="0.60749412" />
    <ellipse
       style="fill:#ffffff;stroke:#000000;stroke-width:0.38084573;stroke-opacity:1"
       id="path128-95"
       cx="59.867447"
       cy="49.405186"
       rx="0.64333439"
       ry="0.60749412" />
    <ellipse
       style="fill:#ffffff;stroke:#000000;stroke-width:0.38084573;stroke-opacity:1"
       id="path128-3"
       cx="58.093876"
       cy="53.84621"
       rx="0.64333439"
       ry="0.60749412" />
    <ellipse
       style="fill:#ffffff;stroke:#000000;stroke-width:0.38084573;stroke-opacity:1"
       id="path128-90"
       cx="54.728729"
       cy="53.846218"
       rx="0.64333439"
       ry="0.60749412" />
    <path
       style="fill:#784421;stroke:#000000;stroke-width:0.23616302px;stroke-linecap:butt;stroke-linejoin:miter;stroke-opacity:1"
       d="m 47.865733,48.984894 c -0.09168,-0.540948 -0.83757,-0.790917 -1.182771,-0.859687 -1.033393,-0.02425 -1.340499,0.227083 -1.562032,0.562681 -0.199781,0.439928 -0.20167,0.779728 -0.106993,1.249838 0.245343,0.452974 0.878447,0.786493 1.233976,1.155886 0.530524,0.350412 1.021269,0.692539 1.712441,0.709925 0.487433,0.0605 1.223598,-0.236042 1.551731,-0.535124 0.279739,-0.25822 0.554508,-0.522174 0.813601,-0.796746 0.278712,-0.321925 0.548413,-0.74214 0.546684,-1.147453 0.07909,-0.500788 -0.468688,-1.204491 -1.037568,-1.278094 -0.667513,-0.06414 -0.671411,-0.06199 -0.988759,0.01203 -0.451516,0.08254 -0.745419,0.522868 -0.985055,0.857838 -0.04032,0.06862 -0.03165,-0.04771 -0.03422,0.0302"
       id="path4786"
       inkscape:connector-curvature="0"
       sodipodi:nodetypes="ccccccccccccc" />
  </g>
  <g
     inkscape:groupmode="layer"
     id="layer3"
     inkscape:label="Layer 2"
     style="display:inline">
    <path
       style="fill:#d38d5f;stroke:#000000;stroke-width:0.47099999;stroke-linecap:butt;stroke-linejoin:miter;stroke-miterlimit:4;stroke-dasharray:none;stroke-opacity:1"
       d="m 70.776386,57.311082 c 0,0 3.264244,-7.014776 4.457265,-9.341068 0,0 0.607544,-1.375571 1.929324,-3.765609 0,0 4.325439,-7.226692 5.445769,-8.955956 2.769107,-3.358681 5.390194,-6.327735 9.90881,-6.594331 2.228671,0.115658 4.468468,-0.204734 6.517839,0.882219 2.110747,1.141817 3.976407,2.758018 4.846277,5.030489 1.00845,1.64789 1.99563,3.537176 1.25166,5.511831 -0.22837,2.234821 -2.04427,3.662279 -3.82315,4.774564 -1.903124,1.068767 -4.771376,1.38506 -6.375649,-0.433702 -1.67809,-1.865376 -1.515802,-4.414119 -2.302251,-6.634942 -0.886941,-2.343938 0,0 -3.096402,3.806133 0,0 -1.152874,1.968461 -2.395953,3.840247 -3.573492,5.742224 -2.447255,4.200648 -3.384395,5.608556 -1.229915,2.152478 0,0 -2.019978,3.598 -0.87609,1.943489 -0.323614,0.309995 -3.211222,6.298573"
       id="path4847-8"
       inkscape:connector-curvature="0"
       sodipodi:nodetypes="cccccccccccccccc" />
    <path
       style="fill:#d38d5f;stroke:#000000;stroke-width:0.47099999;stroke-linecap:butt;stroke-linejoin:miter;stroke-miterlimit:4;stroke-dasharray:none;stroke-opacity:1"
       d="m 59.200201,60.332836 c 1.589778,-3.166287 9.476671,-2.935507 9.476671,-2.935507 6.495548,-0.224441 10.290083,4.166124 12.161677,5.531557 l 3.658436,3.958785 c 5.238075,7.508947 1.97308,15.96983 1.97308,15.96983 -0.290508,2.130965 -0.871297,2.91184 -3.206269,6.461347 -0.03973,0.158914 -1.349555,1.255535 -4.674473,5.07546 -2.241182,1.847453 -3.245509,3.196079 -3.352951,1.752645"
       id="path4840-6"
       inkscape:connector-curvature="0"
       sodipodi:nodetypes="cccccccc" />
    <path
       style="fill:#d38d5f;stroke:#000000;stroke-width:0.47099999;stroke-linecap:butt;stroke-linejoin:miter;stroke-miterlimit:4;stroke-dasharray:none;stroke-opacity:1"
       d="m 35.799825,60.102536 c -1.509366,4.58024 -2.658304,7.974026 -4.325724,11.495321 -2.073585,5.274559 -3.665903,10.315829 -5.924769,16.471819 -0.716643,4.13656 -3.229211,10.00189 -0.971048,13.420464 3.936075,1.82251 6.086079,-3.203544 6.177763,-3.408584 -2.138696,3.718774 3.004041,7.171884 5.059871,4.053954 0.667237,-0.93823 0.859967,-5.275054 1.19566,-1.81745 0.659539,3.67409 5.982989,4.55807 7.18491,0.87432 1.976923,-3.858454 2.183056,-8.807794 3.764874,-12.926574 0.204813,-2.4841 2.323571,-2.459 2.428174,0.14414 1.344796,4.70202 2.474349,9.89544 5.210628,13.458304 2.196325,2.87689 6.340078,1.63495 5.498415,-2.883924 0.742992,-1.69138 -0.658408,4.968614 5.113517,3.899004 4.814062,-2.79729 0.351967,-6.919434 2.554999,-4.267274 1.953914,3.135714 7.079536,0.83611 6.270054,-2.02631 -0.471887,-4.63171 -3.547436,-9.97825 -5.377508,-13.86729 -2.267993,-4.86597 -4.329774,-8.18644 -6.462983,-13.153892 -1.373055,-2.67933 -3.070383,-7.053612 -4.679974,-9.466028"
       id="path4827-3"
       inkscape:connector-curvature="0"
       sodipodi:nodetypes="cccccccccccccccccc" />
    <ellipse
       style="fill:#d35f5f;stroke:#000000;stroke-width:1.07245231;stroke-miterlimit:4;stroke-dasharray:none;stroke-opacity:1"
       id="path4776-4"
       cx="47.787708"
       cy="57.582645"
       rx="4.1238794"
       ry="11.64115" />
    <ellipse
       style="fill:#d38d5f;stroke:#000000;stroke-width:0.67796534;stroke-miterlimit:4;stroke-dasharray:none;stroke-opacity:1"
       id="path101-0-6"
       cx="60.469242"
       cy="19.82655"
       rx="6.8292418"
       ry="6.5889754" />
    <ellipse
       style="fill:#d38d5f;stroke:#000000;stroke-width:0.67796534;stroke-miterlimit:4;stroke-dasharray:none;stroke-opacity:1"
       id="path101-4"
       cx="34.043049"
       cy="20.434036"
       rx="6.8292418"
       ry="6.5889754" />
    <ellipse
       style="fill:#000000;stroke:#000000;stroke-width:0.37190306;stroke-opacity:1"
       id="path61-9-7"
       cx="35.980751"
       cy="22.096304"
       rx="5.3365769"
       ry="4.9451032" />
    <ellipse
       style="fill:#000000;stroke:#000000;stroke-width:0.37190306;stroke-opacity:1"
       id="path61-9-5-5"
       cx="58.881737"
       cy="21.470421"
       rx="5.3365774"
       ry="4.9451032" />
    <ellipse
       style="fill:#d38d5f;stroke:#000000;stroke-width:0.6777761;stroke-opacity:1"
       id="path42-5"
       cx="47.553078"
       cy="35.62138"
       rx="14.598741"
       ry="16.07523" />
    <ellipse
       style="fill:#ffffff;stroke:#000000;stroke-width:0.38084573;stroke-opacity:1"
       id="path61-3"
       cx="41.961025"
       cy="37.544395"
       rx="4.2559042"
       ry="6.5025668" />
    <ellipse
       style="fill:#ffffff;stroke:#000000;stroke-width:0.38084573;stroke-opacity:1"
       id="path61-4-5"
       cx="53.343086"
       cy="37.397144"
       rx="4.2559042"
       ry="6.5025668" />
    <ellipse
       style="fill:#000000;stroke-width:0.38084573"
       id="path82-9"
       cx="42.554871"
       cy="40.294415"
       rx="2.9692354"
       ry="3.3645825" />
    <ellipse
       style="fill:#000000;stroke-width:0.38084573"
       id="path82-7-7"
       cx="52.848213"
       cy="40.20097"
       rx="2.9692354"
       ry="3.3645825" />
    <ellipse
       id="path21-1-0-3"
       cx="39.882542"
       cy="51.649899"
       rx="8.3138599"
       ry="8.8320303"
       style="fill:#000000;stroke:#000000;stroke-width:0.67796534;stroke-miterlimit:4;stroke-dasharray:none;stroke-opacity:1" />
    <ellipse
       style="fill:#ffffff;stroke:#000000;stroke-width:0.38084573;stroke-opacity:1"
       id="path128-8"
       cx="35.280231"
       cy="49.500278"
       rx="0.64333445"
       ry="0.60749412" />
    <ellipse
       style="fill:#ffffff;stroke:#000000;stroke-width:0.38084573;stroke-opacity:1"
       id="path128-9-0"
       cx="38.224716"
       cy="53.916298"
       rx="0.64333445"
       ry="0.60749412" />
    <ellipse
       style="fill:#ff9955;stroke-width:0.38084573"
       id="path128-0-5"
       cx="53.738983"
       cy="50.107796"
       rx="0.64333445"
       ry="0.60749412" />
    <ellipse
       id="path21-1-0-6-2"
       cx="55.866947"
       cy="51.696609"
       rx="8.3138599"
       ry="8.8320303"
       style="fill:#000000;stroke:#000000;stroke-width:0.67796534;stroke-miterlimit:4;stroke-dasharray:none;stroke-opacity:1" />
    <ellipse
       style="fill:#ffffff;stroke:#000000;stroke-width:0.38084573;stroke-opacity:1"
       id="path128-4-5"
       cx="39.21447"
       cy="49.523655"
       rx="0.64333445"
       ry="0.60749412" />
    <ellipse
       style="fill:#ffffff;stroke:#000000;stroke-width:0.38084573;stroke-opacity:1"
       id="path128-9-7-6"
       cx="41.886787"
       cy="53.916298"
       rx="0.64333445"
       ry="0.60749412" />
    <ellipse
       style="fill:#ffffff;stroke:#000000;stroke-width:0.38084573;stroke-opacity:1"
       id="path128-0-9-5"
       cx="43.22295"
       cy="49.5704"
       rx="0.64333445"
       ry="0.60749412" />
    <ellipse
       style="fill:#ffffff;stroke:#000000;stroke-width:0.38084573;stroke-opacity:1"
       id="path128-49-9"
       cx="52.955147"
       cy="49.367622"
       rx="0.64333445"
       ry="0.60749412" />
    <ellipse
       style="fill:#ffffff;stroke:#000000;stroke-width:0.38084573;stroke-opacity:1"
       id="path128-47-5"
       cx="56.51823"
       cy="49.547024"
       rx="0.64333445"
       ry="0.60749412" />
    <ellipse
       style="fill:#ffffff;stroke:#000000;stroke-width:0.38084573;stroke-opacity:1"
       id="path128-95-7"
       cx="59.867447"
       cy="49.405193"
       rx="0.64333445"
       ry="0.60749412" />
    <ellipse
       style="fill:#ffffff;stroke:#000000;stroke-width:0.38084573;stroke-opacity:1"
       id="path128-3-6"
       cx="58.093876"
       cy="53.846214"
       rx="0.64333445"
       ry="0.60749412" />
    <ellipse
       style="fill:#ffffff;stroke:#000000;stroke-width:0.38084573;stroke-opacity:1"
       id="path128-90-4"
       cx="54.728729"
       cy="53.846222"
       rx="0.64333445"
       ry="0.60749412" />
    <path
       style="fill:#784421;stroke:#000000;stroke-width:0.23616304px;stroke-linecap:butt;stroke-linejoin:miter;stroke-opacity:1"
       d="m 47.865734,48.984897 c -0.09168,-0.540949 -0.83757,-0.790916 -1.182771,-0.859687 -1.033393,-0.02426 -1.340499,0.227084 -1.562032,0.562681 -0.199781,0.439928 -0.20167,0.779728 -0.106993,1.249839 0.245343,0.452972 0.878447,0.786493 1.233976,1.155885 0.530524,0.350412 1.021269,0.692539 1.712441,0.709925 0.487433,0.0605 1.223598,-0.236043 1.551731,-0.535122 0.279739,-0.25822 0.554508,-0.522177 0.813601,-0.796748 0.278712,-0.321924 0.548413,-0.74214 0.546685,-1.147453 0.07909,-0.500787 -0.468688,-1.204492 -1.037569,-1.278094 -0.667513,-0.06414 -0.671411,-0.06199 -0.988759,0.01204 -0.451516,0.08254 -0.745419,0.522867 -0.985055,0.857837 -0.04032,0.06862 -0.03165,-0.04771 -0.03422,0.0302"
       id="path4786-1"
       inkscape:connector-curvature="0"
       sodipodi:nodetypes="ccccccccccccc" />
  </g>
</svg>
