<?xml version="1.0" encoding="UTF-8" standalone="no"?>
<!-- Created with Inkscape (http://www.inkscape.org/) -->

<svg
   xmlns:dc="http://purl.org/dc/elements/1.1/"
   xmlns:cc="http://creativecommons.org/ns#"
   xmlns:rdf="http://www.w3.org/1999/02/22-rdf-syntax-ns#"
   xmlns:svg="http://www.w3.org/2000/svg"
   xmlns="http://www.w3.org/2000/svg"
   xmlns:sodipodi="http://sodipodi.sourceforge.net/DTD/sodipodi-0.dtd"
   xmlns:inkscape="http://www.inkscape.org/namespaces/inkscape"
   width="210mm"
   height="297mm"
   viewBox="0 0 210 297"
   version="1.1"
   id="svg3745"
   inkscape:version="0.92.4 (5da689c313, 2019-01-14)"
   sodipodi:docname="paw_final.svg"
   inkscape:export-filename="C:\Users\Paola\Desktop\paw.png"
   inkscape:export-xdpi="96"
   inkscape:export-ydpi="96">
  <defs
     id="defs3739" />
  <sodipodi:namedview
     id="base"
     pagecolor="#ffffff"
     bordercolor="#666666"
     borderopacity="1.0"
     inkscape:pageopacity="0.0"
     inkscape:pageshadow="2"
     inkscape:zoom="3.959798"
     inkscape:cx="193.47299"
     inkscape:cy="1012.1505"
     inkscape:document-units="mm"
     inkscape:current-layer="layer1"
     showgrid="false"
     inkscape:window-width="1920"
     inkscape:window-height="1001"
     inkscape:window-x="-9"
     inkscape:window-y="-9"
     inkscape:window-maximized="1" />
  <metadata
     id="metadata3742">
    <rdf:RDF>
      <cc:Work
         rdf:about="">
        <dc:format>image/svg+xml</dc:format>
        <dc:type
           rdf:resource="http://purl.org/dc/dcmitype/StillImage" />
        <dc:title />
      </cc:Work>
    </rdf:RDF>
  </metadata>
  <g
     inkscape:label="Layer 1"
     inkscape:groupmode="layer"
     id="layer1">
    <path
       style="fill:#ffffff;stroke:#000000;stroke-width:0.23296544px;stroke-linecap:butt;stroke-linejoin:miter;stroke-opacity:1"
       d="m 31.247791,29.31187 c -1.587103,0.763781 -2.365158,1.379616 -3.796398,2.386813 -1.381933,1.060949 -2.471144,2.079923 -3.871652,3.374914 -1.192147,1.159064 -2.261805,2.617463 -3.440337,3.912095 -1.378297,1.636347 -2.134746,3.096088 -2.898015,4.64837 -0.76327,1.552284 -1.210283,2.781948 -1.302433,4.405759 0.25001,2.041937 0.457758,2.507777 1.451668,3.632726 0.993912,1.124949 2.790069,2.092174 4.455286,2.523739 1.817945,0.288228 3.830662,0.468574 5.55113,-0.26589 0.870854,-0.589179 0.936228,-0.631886 2.857261,-2.137548 1.422597,-0.906268 3.019968,-1.924664 4.81942,-2.066581 1.858002,0.03635 4.187508,0.205839 5.76631,1.271928 1.374486,0.872972 2.84531,1.824234 4.485587,2.930368 1.407708,0.758413 3.845533,1.230612 5.227896,0.566769 1.568984,-0.623812 3.618427,-1.639521 4.329678,-3.594195 0.711252,-1.954678 -0.434934,-5.461604 -1.36674,-6.83005 -0.931805,-1.368439 -1.449376,-1.977456 -2.171751,-2.98167 -1.487187,-1.645198 -2.158139,-2.518956 -3.010045,-3.369945 -1.676269,-2.027623 -1.745336,-1.967352 -2.581574,-3.030418 -1.544656,-1.808493 -2.697528,-2.4791 -3.786423,-3.532636 -1.434489,-1.266187 -3.861819,-2.415423 -6.192681,-2.363979 -1.091883,-0.02078 -1.407338,-0.0097 -2.683531,-9.27e-4 0,0 -0.747984,0.101238 -1.842656,0.520373 z"
       id="path3753-81-9"
       inkscape:connector-curvature="0"
       sodipodi:nodetypes="cccczczccccccczzccccccc" />
    <path
       style="fill:none;stroke:#000000;stroke-width:0.23332073px;stroke-linecap:butt;stroke-linejoin:miter;stroke-opacity:1"
       d="m 31.182091,29.320675 c -1.592505,0.763514 -2.373208,1.379134 -3.809318,2.385979 -1.386636,1.060578 -2.479555,2.079195 -3.884827,3.373734 -1.196206,1.158658 -2.269504,2.616548 -3.452046,3.910727 -1.382988,1.635775 -2.142012,3.095005 -2.907879,4.646745 -0.765867,1.551741 -1.214402,2.780975 -1.306865,4.404218 0.250861,2.041223 0.459316,2.5069 1.456609,3.631456 0.997294,1.124556 2.799563,2.091442 4.470448,2.522857 1.824131,0.288127 3.843698,0.46841 5.570022,-0.265797 0.873817,-0.588973 0.939414,-0.631666 2.866984,-2.136801 1.42744,-0.905951 3.030246,-1.923991 4.835823,-2.065859 1.864325,0.03634 4.201758,0.205768 5.785933,1.271484 1.379165,0.872667 2.854993,1.823596 4.500853,2.929343 1.412499,0.758148 3.858619,1.230181 5.245688,0.566571 1.574324,-0.623594 3.630741,-1.638948 4.344413,-3.592938 C 55.6116,48.948399 54.461513,45.442699 53.526537,44.074732 52.591562,42.706771 52.072229,42.097967 51.347394,41.094104 49.855147,39.449482 49.181913,38.576029 48.327108,37.725338 46.645133,35.698424 46.575829,35.758673 45.736747,34.695979 44.186834,32.888118 43.030039,32.217746 41.937438,31.164578 40.498066,29.898834 38.062476,28.75 35.723682,28.801426 c -1.095599,-0.02077 -1.412128,-0.0097 -2.692664,-9.27e-4 0,0 -0.750529,0.101203 -1.848927,0.520191 z"
       id="path3753"
       inkscape:connector-curvature="0"
       sodipodi:nodetypes="cccczczccccccczzccccccc" />
    <path
       style="fill:#ffffff;stroke:#000000;stroke-width:0.5;stroke-linecap:butt;stroke-linejoin:miter;stroke-opacity:1;stroke-miterlimit:4;stroke-dasharray:none;fill-opacity:1"
       d="m 8.097375,19.178292 c -0.83558,0.923707 -0.560672,2.233062 -0.59707,1.759729 -0.05968,0.773707 0.01481,1.165295 0.351119,2.596284 0.105851,0.700018 0.293175,1.085932 0.552207,1.848377 0,0 0.395272,0.980992 0.919882,1.931527 0.521255,1.005354 1.063927,1.780853 1.735796,2.69672 0.541113,0.633648 1.231633,1.676603 1.683067,2.096211 0.651986,0.774405 1.101418,1.218346 1.646371,1.759219 0.718404,0.636677 1.594079,1.07165 2.446821,1.214483 0,0 0.835178,0.139944 2.047247,0.101352 0.834934,-0.140785 0.899298,-0.253384 1.719874,-0.641513 1.760926,-1.310561 2.023329,-0.822366 2.19012,-2.936051 -0.0036,-1.100608 -0.202618,-1.949519 -0.518148,-3.09113 0.03318,0.07337 0.293099,1.128412 0,0 -0.375716,-0.820396 -0.255788,-0.931503 -0.715702,-1.698956 -0.585663,-1.325639 -1.400826,-2.575552 -2.342992,-3.692159 -0.469402,-0.503353 -0.914965,-1.068582 -1.437289,-1.531847 -0.521203,-0.50842 -1.013326,-1.046429 -1.53927,-1.544713 C 15.808543,19.771141 15.025045,19.039949 14.949,19.026655 14.349331,18.390981 13.626902,17.801529 12.859727,17.535671 12.029531,17.03221 10.861071,17.181452 10.311605,17.361773 9.609516,17.54811 9.323726,17.958931 8.71595,18.437162 c -0.182588,0.276402 -0.618554,0.74116 -0.618554,0.74116"
       id="path3812"
       inkscape:connector-curvature="0"
       sodipodi:nodetypes="ccccccccccccccccccccccc" />
    <path
       style="fill:#ffffff;stroke:#000000;stroke-width:0.5;stroke-linecap:butt;stroke-linejoin:miter;stroke-opacity:1;stroke-miterlimit:4;stroke-dasharray:none;fill-opacity:1"
       d="m 26.626501,5.9693798 c -1.207116,0.327163 -1.723244,1.654762 -1.485092,1.212116 -0.486864,0.653003 -0.647549,1.045474 -1.182262,2.517627 -0.309609,0.6854292 -0.37469,1.1396432 -0.594211,1.9712862 0,0 -0.231681,1.106717 -0.340216,2.262902 -0.142315,1.202966 -0.136973,2.21412 -0.105301,3.42663 0.08437,0.884033 0.05936,2.220646 0.191475,2.861174 0.09547,1.074887 0.212166,1.735878 0.3522,2.539646 0.227827,0.991675 0.698617,1.896996 1.316012,2.528842 0,0 0.604648,0.618878 1.618977,1.302019 0.763371,0.368983 0.879817,0.306908 1.771454,0.447342 2.183818,-0.123576 2.122312,0.466074 3.455454,-1.315637 0.62011,-0.98129 0.937723,-1.85433 1.32563,-3.056742 -0.01437,0.08492 -0.398801,1.177391 0,0 0.156781,-0.952269 0.317879,-0.980125 0.375746,-1.935131 0.270892,-1.526033 0.31099,-3.12055 0.171629,-4.671649 -0.09941,-0.725668 -0.144272,-1.492271 -0.309708,-2.2136 -0.13896,-0.760839 -0.237358,-1.530788 -0.385937,-2.285414 -0.197306,-0.499419 -0.424929,-1.6137112 -0.479672,-1.6705522 -0.131169,-0.920498 -0.389027,-1.87254 -0.866712,-2.563184 -0.39478,-0.939331 -1.436041,-1.498219 -1.988041,-1.663048 -0.68038,-0.249819 -1.146964,-0.0535 -1.915357,0.01218 -0.305982,0.137821 -0.926068,0.293227 -0.926068,0.293227"
       id="path3812-1"
       inkscape:connector-curvature="0"
       sodipodi:nodetypes="ccccccccccccccccccccccc" />
    <path
       style="fill:#ffffff;stroke:#000000;stroke-width:0.5;stroke-linecap:butt;stroke-linejoin:miter;stroke-opacity:1;stroke-miterlimit:4;stroke-dasharray:none"
       d="m 39.719701,6.2094178 c -1.197718,0.325968 -1.709832,1.648725 -1.47353,1.207693 -0.483078,0.650622 -0.642512,1.04166 -1.17306,2.508444 -0.307199,0.6829282 -0.371774,1.1354852 -0.589585,1.9640942 0,0 -0.229878,1.10268 -0.337565,2.254647 -0.141211,1.198578 -0.13591,2.206043 -0.104482,3.414129 0.08371,0.880809 0.0589,2.212547 0.189985,2.850737 0.09473,1.070966 0.210511,1.729545 0.349455,2.530383 0.226055,0.988056 0.693182,1.890075 1.305771,2.519616 0,0 0.59994,0.61662 1.606369,1.297268 0.757427,0.367637 0.872966,0.305791 1.757663,0.445712 2.166814,-0.123126 2.105789,0.464373 3.428551,-1.310839 0.615283,-0.97771 0.930421,-1.847565 1.315306,-3.04559 -0.01427,0.08461 -0.395694,1.173096 0,0 0.155565,-0.948795 0.315406,-0.976549 0.372825,-1.928073 0.26878,-1.520466 0.308569,-3.109166 0.170289,-4.654605 -0.09864,-0.723021 -0.143148,-1.486829 -0.307296,-2.205527 -0.137878,-0.758062 -0.235508,-1.525202 -0.382933,-2.277076 -0.195771,-0.497597 -0.421619,-1.607824 -0.475937,-1.664458 -0.130145,-0.9171402 -0.385999,-1.8657102 -0.859962,-2.5538332 -0.391707,-0.935906 -1.424859,-1.492754 -1.972564,-1.656981 -0.675082,-0.248909 -1.138031,-0.0533 -1.900445,0.01214 -0.303598,0.137318 -0.918855,0.292157 -0.918855,0.292157"
       id="path3812-5"
       inkscape:connector-curvature="0"
       sodipodi:nodetypes="ccccccccccccccccccccccc" />
    <path
       style="fill:#ffffff;stroke:#000000;stroke-width:0.5;stroke-linecap:butt;stroke-linejoin:miter;stroke-opacity:1;stroke-miterlimit:4;stroke-dasharray:none;fill-opacity:1"
       d="m 58.694517,16.861658 c -1.22236,-0.379784 -2.402085,0.356466 -1.95175,0.145319 -0.781274,0.241047 -1.13702,0.454496 -2.412749,1.290459 -0.646293,0.357705 -0.953719,0.667545 -1.60318,1.182692 0,0 -0.812142,0.716952 -1.545401,1.535328 -0.788287,0.836218 -1.343076,1.604044 -1.98654,2.537898 -0.416288,0.712714 -1.177306,1.711016 -1.417693,2.264299 -0.512295,0.862887 -0.777304,1.423639 -1.101159,2.104553 -0.352077,0.868706 -0.446776,1.798344 -0.26371,2.597257 0,0 0.179248,0.782477 0.676371,1.826479 0.454422,0.675888 0.589219,0.689432 1.280731,1.259055 1.952332,1.041395 1.573062,1.455569 3.708841,0.800325 1.077835,-0.420216 1.834829,-0.915688 2.834674,-1.623852 -0.05937,0.05682 -0.995404,0.683572 0,0 0.662079,-0.63902 0.816474,-0.576374 1.39472,-1.268873 1.077945,-1.013828 1.994665,-2.199418 2.732545,-3.445415 0.3157,-0.600711 0.7011,-1.204048 0.95743,-1.835789 0.30105,-0.647868 0.64211,-1.281555 0.93141,-1.929729 0.10608,-0.480399 0.52617,-1.441779 0.51038,-1.513231 0.39609,-0.764626 0.70033,-1.618957 0.67032,-2.389747 0.17909,-0.91587 -0.41001,-1.879855 -0.79503,-2.291432 -0.44874,-0.5426 -0.95988,-0.63654 -1.6591,-0.986162 -0.34022,-0.05473 -0.96113,-0.259404 -0.96113,-0.259404"
       id="path3812-51"
       inkscape:connector-curvature="0"
       sodipodi:nodetypes="ccccccccccccccccccccccc" />
    <path
       style="fill:#ffffff;stroke:#000000;stroke-width:0.5;stroke-linecap:butt;stroke-linejoin:miter;stroke-opacity:1;stroke-miterlimit:4;stroke-dasharray:none;fill-opacity:1"
       d="m 31.18209,29.320675 c -1.592505,0.763514 -2.373208,1.379134 -3.809318,2.385979 -1.386636,1.060578 -2.479555,2.079195 -3.884827,3.373734 -1.196206,1.158658 -2.269504,2.616548 -3.452046,3.910727 -1.382988,1.635775 -2.142012,3.095005 -2.907879,4.646745 -0.765867,1.551741 -1.214402,2.780975 -1.306865,4.404218 0.250861,2.041223 0.459316,2.5069 1.456609,3.631456 0.997294,1.124556 2.799563,2.091442 4.470448,2.522857 1.824131,0.288127 3.843698,0.46841 5.570022,-0.265797 0.873817,-0.588973 0.939414,-0.631666 2.866984,-2.136801 1.42744,-0.905951 3.030246,-1.923991 4.835823,-2.065859 1.864325,0.03634 4.201758,0.205768 5.785933,1.271484 1.379164,0.872667 2.854994,1.823596 4.500853,2.929343 1.412499,0.758148 3.85862,1.230182 5.245687,0.566571 1.574324,-0.623594 3.630742,-1.638948 4.344413,-3.592938 0.713672,-1.953995 -0.436414,-5.459695 -1.371391,-6.827662 C 52.59156,42.706771 52.072228,42.097967 51.347394,41.094104 49.855146,39.449482 49.181911,38.576029 48.327106,37.725338 46.645131,35.698424 46.575829,35.758673 45.736745,34.695979 44.186832,32.888118 43.030037,32.217746 41.937437,31.164578 40.498065,29.898834 38.062475,28.75 35.723681,28.801426 c -1.095599,-0.02077 -1.412128,-0.0097 -2.692664,-9.27e-4 0,0 -0.750529,0.101203 -1.848927,0.520191 z"
       id="path3753-81"
       inkscape:connector-curvature="0"
       sodipodi:nodetypes="cccczczccccccczzccccccc" />
  </g>
</svg>
